<svg xmlns="http://www.w3.org/2000/svg" viewBox="0 0 49 32"><defs><style>.a{fill:#e1ab99;}</style></defs><g transform="translate(0 -9.939)"><g transform="translate(10.414 23.406)"><path class="a" d="M15.051,25.812a5.33,5.33,0,0,0-1.869.34l-.224,1.33a4.869,4.869,0,0,1,1.682-.272c.575,0,.995.064.995.531a1,1,0,0,1-.051.389s-.453-.037-.663-.037c-1.335,0-2.737.568-2.737,2.287a1.463,1.463,0,0,0,1.49,1.663,2.006,2.006,0,0,0,1.583-.708l-.051.59h1.359l.606-4.25A1.826,1.826,0,0,0,15.051,25.812Zm-.762,4.938a.562.562,0,0,1-.6-.583c0-.422.229-.93,1.36-.93a.968.968,0,0,1,.336.036C15.411,29.533,15.219,30.75,14.289,30.75Z" transform="translate(-12.184 -25.812)"/></g><g transform="translate(14.462 23.419)"><path class="a" d="M19.959,27.237c.217,0,1.054.069,1.054.069l.195-1.362a7.2,7.2,0,0,0-1.424-.121c-1.142,0-2.3.456-2.3,2.015,0,1.768,1.932,1.588,1.932,2.334,0,.5-.54.537-.956.537a4.938,4.938,0,0,1-1.371-.236l-.206,1.351a4.984,4.984,0,0,0,1.732.188c.347,0,2.334.09,2.334-1.961,0-1.918-1.839-1.539-1.839-2.31C19.11,27.357,19.409,27.237,19.959,27.237Z" transform="translate(-16.883 -25.823)"/></g><g transform="translate(18.191 22.708)"><path class="a" d="M23.206,27.411h.817l.2-1.452h-.77l.157-.9H22.064c-.034.033-.911,5.076-.911,5.688a1.145,1.145,0,0,0,1.23,1.308,3.977,3.977,0,0,0,1.157-.2l.193-1.312c-.106,0-.261.046-.4.046-.537,0-.6-.287-.562-.5Z" transform="translate(-21.153 -25.059)"/></g><g transform="translate(22.131 17.799)"><path class="a" d="M29.673,18.987H26.919c-.37.5-.718,1.032-1.033,1.552H30.8A14.677,14.677,0,0,0,29.673,18.987Z" transform="translate(-25.886 -18.987)"/></g><g transform="translate(43.319 32.711)"><path class="a" d="M51.161,36.445a.8.8,0,0,0-.075-.1.108.108,0,0,0-.043-.026.157.157,0,0,0,.1-.046.138.138,0,0,0,.039-.1.134.134,0,0,0-.023-.074.121.121,0,0,0-.064-.049.38.38,0,0,0-.127-.015H50.8v.505h.082V36.33h.047a.1.1,0,0,1,.064.018.454.454,0,0,1,.086.117l.044.08h.1Zm-.182-.182h-.1v-.152h.094a.24.24,0,0,1,.08.009.079.079,0,0,1,.035.026.069.069,0,0,1,.012.039.071.071,0,0,1-.025.057A.168.168,0,0,1,50.979,36.263Z" transform="translate(-50.799 -36.039)"/></g><g transform="translate(20.504 20.47)"><path class="a" d="M31.634,22.062H25.027c-.422.8-.7,1.4-.781,1.553H32.26A14.637,14.637,0,0,0,31.634,22.062Z" transform="translate(-24.246 -22.062)"/></g><g transform="translate(5.207 22.279)"><path class="a" d="M10.293,24.583l-1.521,4.51-.079-4.51H6.441L5.207,31.932H6.7l.939-5.54.138,5.54H8.836l1.983-5.54-.879,5.54h1.58l1.217-7.349Z" transform="translate(-5.207 -24.583)"/></g><g transform="translate(31.796 23.406)"><path class="a" d="M40.069,25.812a5.325,5.325,0,0,0-1.87.34l-.225,1.33a4.876,4.876,0,0,1,1.682-.272c.575,0,1,.064,1,.531a.966.966,0,0,1-.053.389s-.452-.037-.664-.037c-1.334,0-2.735.568-2.735,2.287a1.464,1.464,0,0,0,1.49,1.663,2.01,2.01,0,0,0,1.583-.708l-.051.59H41.58l.606-4.25A1.822,1.822,0,0,0,40.069,25.812Zm-.76,4.938a.561.561,0,0,1-.6-.583c0-.422.229-.93,1.36-.93a.98.98,0,0,1,.336.036C40.43,29.533,40.237,30.75,39.309,30.75Z" transform="translate(-37.2 -25.812)"/></g><g transform="translate(42.856 28.299)"><path class="a" d="M51.21,31.255a.422.422,0,0,0-.176-.174.466.466,0,0,0-.23-.061.5.5,0,0,0-.23.061.425.425,0,0,0-.175.174.473.473,0,0,0-.063.234.463.463,0,0,0,.063.232.448.448,0,0,0,.173.175.478.478,0,0,0,.232.062.47.47,0,0,0,.233-.062.474.474,0,0,0,.235-.407A.461.461,0,0,0,51.21,31.255Zm-.065.427a.377.377,0,0,1-.145.146.386.386,0,0,1-.387,0,.373.373,0,0,1-.146-.146.382.382,0,0,1-.052-.194.378.378,0,0,1,.054-.195.364.364,0,0,1,.146-.145.391.391,0,0,1,.192-.05.386.386,0,0,1,.19.05.358.358,0,0,1,.146.145.4.4,0,0,1,.054.195A.39.39,0,0,1,51.145,31.682Z" transform="translate(-50.336 -31.02)"/></g><g transform="translate(43.12 28.526)"><path class="a" d="M50.963,31.648a.627.627,0,0,0-.074-.1.115.115,0,0,0-.043-.026.155.155,0,0,0,.1-.046.139.139,0,0,0,.04-.1.13.13,0,0,0-.024-.074.142.142,0,0,0-.062-.049.387.387,0,0,0-.128-.015H50.6v.5h.082v-.214h.047a.109.109,0,0,1,.066.017.51.51,0,0,1,.086.119l.043.079h.1Zm-.18-.185h-.1V31.31h.092a.3.3,0,0,1,.082.008.079.079,0,0,1,.033.027.065.065,0,0,1,.013.041.074.074,0,0,1-.024.055A.145.145,0,0,1,50.783,31.463Z" transform="translate(-50.6 -31.242)"/></g><g transform="translate(35.908 23.482)"><path class="a" d="M45.313,25.885c-.691,0-1.2.943-1.2.943l.138-.867H42.809l-.963,5.982H43.43c.451-2.556.533-4.629,1.6-4.25a5.934,5.934,0,0,1,.576-1.788A1.762,1.762,0,0,0,45.313,25.885Z" transform="translate(-41.846 -25.885)"/></g><g transform="translate(37.397 22.276)"><path class="a" d="M49.293,24.591l-.333,2.065a2.037,2.037,0,0,0-1.49-.8c-1.415,0-2.593,1.706-2.593,3.664,0,1.265.629,2.5,1.913,2.5a1.928,1.928,0,0,0,1.437-.645l-.067.551h1.5l1.18-7.339Zm-1.957,5.93c-.556,0-.816-.466-.816-1.2,0-1.2.537-1.986,1.216-1.986.554,0,.839.382.839,1.28C48.575,29.432,48.172,30.521,47.336,30.521Z" transform="translate(-44.877 -24.588)"/></g><g transform="translate(0 9.939)"><path class="a" d="M47.739,9.939H1.261A1.266,1.266,0,0,0,0,11.21V40.668a1.266,1.266,0,0,0,1.261,1.271H47.739A1.266,1.266,0,0,0,49,40.668V11.21A1.266,1.266,0,0,0,47.739,9.939ZM44.6,33.176a.379.379,0,0,1-.15.153.4.4,0,0,1-.4,0,.392.392,0,0,1-.151-.153.413.413,0,0,1-.054-.2.418.418,0,0,1,.055-.2.376.376,0,0,1,.152-.152.426.426,0,0,1,.2-.052.419.419,0,0,1,.2.052.37.37,0,0,1,.152.152.419.419,0,0,1,.054.2A.4.4,0,0,1,44.6,33.176Zm.909-7.236A12.623,12.623,0,0,1,32.939,38.615,12.471,12.471,0,0,1,24.5,35.338a12.47,12.47,0,0,1-8.43,3.274,12.673,12.673,0,0,1-.081-25.345h.081A12.472,12.472,0,0,1,24.5,16.54a12.477,12.477,0,0,1,8.434-3.277,12.623,12.623,0,0,1,12.579,12.67S45.51,25.936,45.51,25.939Z" transform="translate(0 -9.939)"/></g><g transform="translate(23.012 33.796)"><path class="a" d="M26.753,37.406a14.426,14.426,0,0,0,1.482,1.584l.037-.031h0a14.488,14.488,0,0,0,1.472-1.552Z" transform="translate(-26.753 -37.406)"/></g><g transform="translate(20.544 23.382)"><path class="a" d="M28.727,29.45a11.079,11.079,0,0,0,.2-1.407,2.069,2.069,0,0,0-2.2-2.257c-1.552,0-2.7,1.673-2.7,3.563a2.422,2.422,0,0,0,2.666,2.7,3.914,3.914,0,0,0,1.63-.254l.272-1.488a4.8,4.8,0,0,1-1.639.38c-1.657,0-1.367-1.236-1.367-1.236h3.136Zm-1.992-2.279c.871,0,.71.979.71,1.057H25.732C25.732,28.127,25.894,27.171,26.735,27.171Z" transform="translate(-24.029 -25.786)"/></g><g transform="translate(27.653 22.117)"><path class="a" d="M35.965,25.991a2.748,2.748,0,0,1,1.416.441l.252-1.635a5.534,5.534,0,0,0-1.738-.378c-1.781,0-3.514,1.546-3.514,4.449,0,1.925.935,3.2,2.777,3.2a7.152,7.152,0,0,0,1.35-.211l.276-1.684a3.707,3.707,0,0,1-1.276.379,1.528,1.528,0,0,1-1.535-1.733C33.973,26.992,34.915,25.991,35.965,25.991Z" transform="translate(-32.381 -24.419)"/></g><g transform="translate(21.078 31.154)"><path class="a" d="M24.818,34.361a14.333,14.333,0,0,0,.856,1.552h5.143a14.514,14.514,0,0,0,.844-1.552Z" transform="translate(-24.818 -34.361)"/></g><g transform="translate(24.79 23.484)"><path class="a" d="M32.353,25.887c-.691,0-1.2.943-1.2.943l.139-.867H29.852l-.963,5.982h1.584c.449-2.555.533-4.629,1.6-4.25a5.935,5.935,0,0,1,.574-1.79A1.564,1.564,0,0,0,32.353,25.887Z" transform="translate(-28.889 -25.887)"/></g></g></svg>