<svg xmlns="http://www.w3.org/2000/svg" viewBox="0 0 44 29"><defs><style>.a{fill:#e1ab99;}</style></defs><path class="a" d="M42.167,64H6.722a1.823,1.823,0,0,0-1.833,1.812v.6H1.833A1.823,1.823,0,0,0,0,68.229V88.771A4.254,4.254,0,0,0,4.278,93H40.333A3.646,3.646,0,0,0,44,89.375V65.812A1.823,1.823,0,0,0,42.167,64ZM4.278,89.375a.608.608,0,0,1-.611-.6V70.042H4.889V88.771A.608.608,0,0,1,4.278,89.375Zm18.028-1.208H10.694a.912.912,0,0,1-.917-.906v-.6a.912.912,0,0,1,.917-.906H22.306a.912.912,0,0,1,.917.906v.6A.912.912,0,0,1,22.306,88.167Zm15.889,0H26.583a.912.912,0,0,1-.917-.906v-.6a.912.912,0,0,1,.917-.906H38.194a.912.912,0,0,1,.917.906v.6A.912.912,0,0,1,38.194,88.167Zm-15.889-7.25H10.694a.912.912,0,0,1-.917-.906v-.6a.912.912,0,0,1,.917-.906H22.306a.912.912,0,0,1,.917.906v.6A.912.912,0,0,1,22.306,80.917Zm15.889,0H26.583a.912.912,0,0,1-.917-.906v-.6a.912.912,0,0,1,.917-.906H38.194a.912.912,0,0,1,.917.906v.6A.912.912,0,0,1,38.194,80.917Zm0-7.25h-27.5a.912.912,0,0,1-.917-.906V69.74a.912.912,0,0,1,.917-.906h27.5a.912.912,0,0,1,.917.906V72.76A.912.912,0,0,1,38.194,73.667Z" transform="translate(0 -64)"/></svg>