<svg xmlns="http://www.w3.org/2000/svg" viewBox="0 0 240 211"><defs><style>.a{fill:#e1ab99;opacity:0.798;}</style></defs><path class="a" d="M240.071-147.6c-52.6,31.2-92.055,79.638-92.055,139.572,0,44.335,21.37,71.428,55.89,71.428,28.767,0,48.493-19.7,48.493-45.156s-17.26-40.23-40.274-40.23c-13.973,0-19.726,5.747-28.767,5.747-6.575,0-9.863-3.284-9.863-12.315,0-36.125,26.3-78.817,73.973-107.553Zm-135.616,0C51.852-116.4,12.4-67.962,12.4-8.028,12.4,36.307,33.77,63.4,68.29,63.4c28.767,0,48.493-19.7,48.493-45.156s-17.26-40.23-40.274-40.23c-13.973,0-19.726,5.747-28.767,5.747-6.575,0-9.863-3.284-9.863-12.315,0-36.125,26.3-78.817,73.973-107.553Z" transform="translate(-12.4 147.6)"/></svg>