<svg xmlns="http://www.w3.org/2000/svg" viewBox="0 0 120 105.616"><defs><style>.a{fill:#fafafa;opacity:0.327;}</style></defs><path class="a" d="M126.236-147.6c-26.3,15.616-46.027,39.863-46.027,69.863,0,22.192,10.685,35.753,27.945,35.753,14.384,0,24.247-9.863,24.247-22.6s-8.63-20.137-20.137-20.137c-6.986,0-9.863,2.877-14.384,2.877-3.288,0-4.932-1.644-4.932-6.164,0-18.082,13.151-39.452,36.986-53.836Zm-67.808,0C32.126-131.984,12.4-107.737,12.4-77.737c0,22.192,10.685,35.753,27.945,35.753,14.384,0,24.247-9.863,24.247-22.6s-8.63-20.137-20.137-20.137c-6.986,0-9.863,2.877-14.384,2.877-3.288,0-4.932-1.644-4.932-6.164,0-18.082,13.151-39.452,36.986-53.836Z" transform="translate(-12.4 147.6)"/></svg>