<svg xmlns="http://www.w3.org/2000/svg" viewBox="0 0 375 11716"><defs><style>.a,.s,.y{fill:#e1ab99;}.b,.h,.i,.j,.r,.v,.x{fill:#292929;}.b,.i,.j,.l,.m,.y{font-size:18px;}.b,.h,.o,.s,.y{font-family:PFDinTextCompPro-Medium, PF Din Text Comp Pro;font-weight:500;}.c,.h,.y{letter-spacing:0.04em;}.d,.i,.k,.m,.n{font-family:HarrietText-Regular, Harriet Text;}.d,.m,.p{font-weight:400;}.e,.p,.r{font-family:HarrietText-Italic, Harriet Text;font-style:italic;}.f{font-family:LucidaGrande-Bold, Lucida Grande;}.f,.v,.w{font-weight:700;}.g{fill:#fafafa;font-size:24px;font-family:PFDinTextPro-Regular, PF DinText Pro;}.g,.m{letter-spacing:0.02em;}.h{font-size:22px;}.n{font-style:normal;}.q{fill:none;stroke:#292929;}.r{font-size:20px;letter-spacing:0.015em;}.s{font-size:12px;letter-spacing:0.05em;}.t{font-family:PFDinTextCompPro-Light, PF Din Text Comp Pro;}.t,.u,.x{font-weight:300;}.u,.x{font-family:HarrietDisplay-Light, Harriet Display;}.v,.w{font-family:HarrietDisplay-Bold, Harriet Display;}.x{font-size:32px;}</style></defs><g transform="translate(0 -344)"><rect class="a" width="375" height="1826" transform="translate(0 6597)"/><text class="b" transform="translate(18 8463)"><tspan class="c" x="0" y="19">FUSKET GÄLLER OCKSÅ</tspan><tspan class="d" y="19" xml:space="preserve"> de kvalitets­</tspan><tspan class="d" x="0" y="51">benämningar som EU införde 1960 för </tspan><tspan class="d" x="0" y="83">att sanera det vildvuxna utbudet. Den </tspan><tspan class="d" x="0" y="115">högsta klassen är sedan dess »extra </tspan><tspan class="d" x="0" y="147">jungfruolja«, och för att en olja ska få </tspan><tspan class="d" x="0" y="179">säljas under denna benämn­ing ställs </tspan><tspan class="d" x="0" y="211">detaljerade krav på både den kemiska </tspan><tspan class="d" x="0" y="243">sammansättningen och smaken. Oljan </tspan><tspan class="d" x="0" y="275">ska inte bara genomgå laboratorietester </tspan><tspan class="d" x="0" y="307">utan även smaktestas av en professionell </tspan><tspan class="d" x="0" y="339">panel, som ratar de oljor som har någon </tspan><tspan class="d" x="0" y="371">av 16 tydligt definierade bismaker, </tspan><tspan class="d" x="0" y="403">exempelvis härskenhet, rökighet och </tspan><tspan class="d" x="0" y="435">möglighet. Den extra jungfruoljan måste </tspan><tspan class="d" x="0" y="467">däremot ha en tydligt fruktig och fräsch </tspan><tspan class="d" x="0" y="499">grundsmak, och gärna en viss bitterhet </tspan><tspan class="d" x="0" y="531">och pepprighet. Just detta bett i </tspan><tspan class="d" x="0" y="563">eftersmaken – som för den ovane kan </tspan><tspan class="d" x="0" y="595">kännas mindre angenämt – är ett tecken </tspan><tspan class="d" x="0" y="627">på att oljan innehåller rikligt med så </tspan><tspan class="d" x="0" y="659">kallade poly­fenoler, de antioxidanter </tspan><tspan class="d" x="0" y="691">som spelar en viktig roll för olivoljans </tspan><tspan class="d" x="0" y="723" xml:space="preserve">hälsobringande egen­skaper.  </tspan><tspan class="d"><tspan x="0" y="771">Ursprungligen var extra jungfruolja </tspan><tspan x="0" y="803">tänkt som en beteckning på en </tspan><tspan x="0" y="835">begränsad skara verkliga toppoljor, men </tspan><tspan x="0" y="867">idag är den istället standard i butiken. </tspan><tspan x="0" y="899">Medan konsumenten tjusas av </tspan><tspan x="0" y="931">etiketternas idylliska bilder av </tspan><tspan x="0" y="963">gammaldags oliv­skördar korsar stora </tspan><tspan x="0" y="995">fartyg Medel­havet med 3000 ton extra </tspan><tspan x="0" y="1027">jungfruolja i tankarna. Billig spansk </tspan><tspan x="0" y="1059">olivolja, som i branschen kallas för </tspan><tspan x="0" y="1091">»kattpiss« </tspan><tspan class="e" y="1091">(pipí de gatto)</tspan><tspan y="1091">, skeppas till </tspan><tspan x="0" y="1123">Italien för att ingå i »italienska« </tspan><tspan x="0" y="1155">supermarketoljor som säljs över hela </tspan><tspan x="0" y="1187">världen under beteckningen </tspan><tspan class="e" y="1187">extra </tspan><tspan class="e" x="0" y="1219">vergine.</tspan><tspan y="1219" xml:space="preserve"> Oljor som tidigare ansågs vara </tspan><tspan x="0" y="1251">vanlig jungfruolja har numera upphöjts </tspan><tspan x="0" y="1283">till extra jungfru­olja, och på Lidl kan </tspan><tspan x="0" y="1315">man idag få en 75- centlitersflaska sådan </tspan><tspan x="0" y="1347">olja för 29,90 – att jämföra med cirka </tspan><tspan x="0" y="1379">200 kronor för en hög­ klassig gårdsolja. </tspan><tspan x="0" y="1427">Frågan är därför om de många </tspan><tspan x="0" y="1459">storsäljande extra jungfruoljorna </tspan><tspan x="0" y="1491">verkligen lever upp till kvalitets­kraven, </tspan><tspan x="0" y="1523" xml:space="preserve">eller om de seglar under falsk flagg.  </tspan><tspan x="0" y="1555">Oberoende schweiziska, tyska, norska </tspan><tspan x="0" y="1587">och australiska granskningar har </tspan><tspan x="0" y="1619">avslöjat att många av de billig­are extra </tspan><tspan x="0" y="1651">jungfruoljor som kan köpas i dessa </tspan><tspan x="0" y="1683">länder faktiskt inte håller måttet. Och </tspan><tspan x="0" y="1715">sedan den italienska konsument­ </tspan><tspan x="0" y="1747">tidningen Il Test i maj 2015 visat att 9 av </tspan><tspan x="0" y="1779">20 testade oljor inte borde få säljas som </tspan><tspan x="0" y="1811">extra jungfru­olja beslöt de italienska </tspan><tspan x="0" y="1843">myndigheterna att själva undersöka </tspan><tspan x="0" y="1875">saken. Italiensk anti­bedrägeripolis </tspan><tspan x="0" y="1907">inhandlade samma oljor som Il Test och </tspan><tspan x="0" y="1939">kunde efter kemiska och smakmässiga </tspan><tspan x="0" y="1971">analyser i tullens laboratorium i </tspan><tspan x="0" y="2003">november i fjol bekräfta tidning­ens </tspan><tspan x="0" y="2035">resultat. Sju av landets mest välkända </tspan><tspan x="0" y="2067">olivolje­märken – bland andra Bertolli </tspan><tspan x="0" y="2099">och Lidls Primadonna, vilka båda säljs i </tspan><tspan x="0" y="2131">Sverige – utreds nu av åklagare i Turin. </tspan><tspan x="0" y="2163">Ordföranden för Italiens största </tspan><tspan x="0" y="2195">konsument­ organisation uppmanar </tspan><tspan x="0" y="2227">lurade kunder att söka ersättning med </tspan><tspan x="0" y="2259">upp till 5</tspan><tspan class="f" y="2259"> </tspan><tspan y="2259">000 euro, på grund av det </tspan><tspan x="0" y="2291">»brutna förtroendet och den ekonomiska </tspan><tspan x="0" y="2323">skadan för de människor som har betalat </tspan><tspan x="0" y="2355">extra för en sämre produkt«. </tspan><tspan x="0" y="2387">Jordbruksministern ­Maurizio Martina </tspan><tspan x="0" y="2419">framhåller att det nu gäller att »skydda </tspan><tspan x="0" y="2451">såväl konsument­en som de tusentals </tspan><tspan x="0" y="2483">hederliga olivolje­producenterna i </tspan><tspan x="0" y="2515">landet«. Och en talesman för de </tspan><tspan x="0" y="2547">italienska bönderna konstaterar det </tspan><tspan x="0" y="2579">uppenbara, att man bör vara </tspan><tspan x="0" y="2611">misstänksam mot extra olivoljor som </tspan><tspan x="0" y="2643" xml:space="preserve">säljs till ett väldigt lågt pris.  </tspan><tspan x="0" y="2691"></tspan></tspan><tspan class="c" x="0" y="2739">SÅ HUR LURADE RISKERAR</tspan><tspan class="d" y="2739" xml:space="preserve"> vi att bli här i </tspan><tspan class="d" x="0" y="2771">Sverige? De svenska importörerna </tspan><tspan class="d" x="0" y="2803">garanterar förstås att de enbart säljer </tspan><tspan class="d" x="0" y="2835">äkta olivolja, och att de själva låter göra </tspan><tspan class="d" x="0" y="2867">regelbundna kontroller. Men några </tspan><tspan class="d" x="0" y="2899">oberoende undersökningar har aldrig </tspan><tspan class="d" x="0" y="2931">gjorts. Livsmedelsverket – som numera </tspan><tspan class="d" x="0" y="2963">säger sig arbeta hårt mot matfusk – har </tspan><tspan class="d" x="0" y="2995">hittills inte tagit sig an olivolja, trots att </tspan><tspan class="d" x="0" y="3027">det är ett av de mest utsatta livsmedlen. </tspan><tspan class="d" x="0" y="3059">Och ute i kommunerna har av allt att </tspan><tspan class="d" x="0" y="3091" xml:space="preserve">döma inga analyser utförts.  </tspan><tspan class="d"><tspan x="0" y="3139">– Vi är få som jobbar med denna </tspan><tspan x="0" y="3171">verksamhet och vi ska även kolla så </tspan><tspan x="0" y="3203">mycket annat, förklarar stats­inspektör </tspan><tspan x="0" y="3235" xml:space="preserve">Pontus Elvingsson på Livsmedels­verket.  </tspan><tspan x="0" y="3283">Myndigheten har varken kontroll­erat om </tspan><tspan x="0" y="3315">de oljor som säljs i landet är utspädda </tspan><tspan x="0" y="3347">med andra billigare oljor eller om </tspan><tspan x="0" y="3379">tillverkarna fuskar med EU:s kvalitets­</tspan><tspan x="0" y="3411" xml:space="preserve">benämningar.  </tspan><tspan x="0" y="3459">Hunger tog därför saken i egna händer </tspan><tspan x="0" y="3491">och skickade tio oljor från svenska </tspan><tspan x="0" y="3523" xml:space="preserve">butikshyllor på analys.  Resultatet blev </tspan><tspan x="0" y="3555" xml:space="preserve">nedslående.  Denna text publicerades i </tspan><tspan x="0" y="3587">Hunger #2 (2016). </tspan></tspan></text><text class="g" transform="translate(18 6637)"><tspan x="0" y="22" xml:space="preserve">LITEN OLJEORDLISTA  </tspan><tspan x="0" y="58"></tspan><tspan class="h"><tspan x="0" y="94">EXTRA JUNGFRUOLJA </tspan></tspan><tspan class="i"><tspan x="0" y="130">Den högsta klassens olivolja. Måste </tspan><tspan x="0" y="162">uppfylla ett antal kemiska kvalitetskrav </tspan><tspan x="0" y="194">och testas dessutom av särskilda </tspan><tspan x="0" y="226">smakpaneler som avgör om oljan har den </tspan><tspan x="0" y="258">eftertraktade fruktigheten och är fri från </tspan><tspan x="0" y="290">oangenäma bismaker. Utvinns – liksom </tspan><tspan x="0" y="322">den ordinära jungfruoljan – endast </tspan><tspan x="0" y="354" xml:space="preserve">genom mekaniska processer.  </tspan><tspan x="0" y="390"></tspan></tspan><tspan class="h"><tspan x="0" y="426">JUNGFRUOLJA </tspan></tspan><tspan class="j"><tspan x="0" y="462">Oljor som inte klarar den extra </tspan><tspan x="0" y="494">jungfruoljans kvalitetskrav. Har i stort sett </tspan><tspan x="0" y="526">försvunnit från marknaden sedan priset på </tspan><tspan x="0" y="558">extra jungfruolja sjunkit. Många oljor som </tspan><tspan x="0" y="590">tidigare märktes som jungfruolja säljs i dag </tspan><tspan x="0" y="622">som extra jungfruolja.</tspan><tspan class="k" y="622" xml:space="preserve">  </tspan></tspan><tspan class="i"><tspan x="0" y="658"></tspan></tspan><tspan class="h"><tspan x="0" y="694">LAMPANTE</tspan><tspan class="l" y="694"> </tspan></tspan><tspan class="j"><tspan x="0" y="730">Den lägsta klassens jungfruolja Anses inte </tspan><tspan x="0" y="762">tjänlig som livsmedel utan att först ha </tspan><tspan x="0" y="794" xml:space="preserve">raffinerats. Kallas bomolja på svenska.  </tspan></tspan><tspan class="i"><tspan x="0" y="830"></tspan></tspan><tspan class="h"><tspan x="0" y="866">OLIVOLJA</tspan><tspan class="m" y="866"> </tspan></tspan><tspan class="j"><tspan x="0" y="902">Raffinerad lågkvalitativ olja som smak- och </tspan><tspan x="0" y="934">färgsatts med en mindre mängd extra </tspan><tspan x="0" y="966">jungfruolja. Raffineringen innebär att oljan </tspan><tspan x="0" y="998">utsätts för ett antal kemiska och andra </tspan><tspan x="0" y="1030">processer som gör den smaklös (och </tspan><tspan x="0" y="1062">därmed utan bismaker), doftlös, färglös och </tspan><tspan x="0" y="1094">utan många av olivoljans hälsofördelar. </tspan><tspan x="0" y="1126">Säljs som billig olivolja i mataffären, till </tspan><tspan x="0" y="1158">restaurangbranschen och till </tspan><tspan x="0" y="1190">livsmedelsindustrin. Om det står »olivolja« </tspan><tspan x="0" y="1222">på pestoburken i butiken är det förmodligen </tspan><tspan x="0" y="1254">sådan olja som använts.</tspan></tspan><tspan class="i"><tspan x="0" y="1290" xml:space="preserve">  </tspan></tspan><tspan class="h"><tspan x="0" y="1326">KALLPRESSAD</tspan><tspan class="m" y="1326"> </tspan></tspan><tspan class="j"><tspan x="0" y="1362">För 50 år sedan, när man utvann olj­an med </tspan><tspan x="0" y="1394">hjälp av hydrauliska pressar, stod detta </tspan><tspan x="0" y="1426">uttryck – liksom termen »första </tspan><tspan x="0" y="1458">pressningen« – för kvalitet. Att oljan var </tspan><tspan x="0" y="1490">kallpressad betydde att den inte hade gjorts </tspan><tspan x="0" y="1522">i den andra pressningen, då resterna av den </tspan><tspan x="0" y="1554">första lakades ur med hjälp av hett vatten. I </tspan><tspan x="0" y="1586">dag är kallpressat ett överspelat begrepp </tspan><tspan x="0" y="1618">som mest används i marknadsföringssyfte. </tspan><tspan x="0" y="1650">Merparten av oljan framställs i moderna </tspan><tspan x="0" y="1682">centrifuger och får då – enligt EU:s regler – </tspan><tspan x="0" y="1714">inte påstås vara kallpressad, men det </tspan><tspan x="0" y="1746">struntar många tillverkare i. </tspan></tspan></text><text class="i" transform="translate(18 707)"><tspan x="0" y="19">Kanske har du sett den svartvita </tspan><tspan x="0" y="51">reklamfilmen för matföretaget Zeta. </tspan><tspan x="0" y="83">Under ständiga förmaningar från sin </tspan><tspan x="0" y="115">oroliga moder packar en ung man i </tspan><tspan x="0" y="147">klassisk vit undertröja ned sina få­taliga </tspan><tspan x="0" y="179">tillhörigheter i en sliten koffert. Inom </tspan><tspan x="0" y="211">några minuter ska han styra sin </tspan><tspan x="0" y="243">fullastade vespa bort från sin italienska </tspan><tspan x="0" y="275">hemstad och söka lyckan norrut. Men i </tspan><tspan x="0" y="307">samma stund som han ska lämna </tspan><tspan x="0" y="339">föräldrahemmet bakom sig kommer </tspan><tspan x="0" y="371">mamman rusande ut på gatan och sticker </tspan><tspan x="0" y="403">ned en flaska hemgjord olivolja i en av </tspan><tspan x="0" y="435">scooterns sidoväskor. Strax därefter </tspan><tspan x="0" y="467">presenterar sig huvudpersonen – och </tspan><tspan x="0" y="499">företagets grundare – i en kortfattad </tspan><tspan x="0" y="531">speakertext: »Jag heter Fernando di </tspan><tspan x="0" y="563">Luca. 1961 flyttade jag till Sverige. </tspan><tspan x="0" y="611" xml:space="preserve">Det bästa från Italien fick jag med mig.«  </tspan><tspan x="0" y="643">Denna nostalgiska videopärla, med den </tspan><tspan x="0" y="675">hyllade spelfilmsregissören Mikael </tspan><tspan x="0" y="707">Marcimain bakom kameran, har strängt </tspan><tspan x="0" y="739">taget bara ett fel: ingen av de tre </tspan><tspan x="0" y="771">Zetaoljor som filmen ska sälja, och som </tspan><tspan x="0" y="803">visas i slutvinjetten, är särskilt italiensk. </tspan><tspan x="0" y="835">Flaskornas etiketter är visserligen fulla </tspan><tspan x="0" y="867">av de rätta fraserna: </tspan><tspan class="e" y="867">»Olio extra vergine </tspan><tspan class="e" x="0" y="899">di oliva«, »Per tutti i giorno«, </tspan><tspan class="e" x="0" y="931">»Fruttato«, »Classico«, »Originale«</tspan><tspan y="931">, och </tspan><tspan x="0" y="963">pryds dessutom av Fernando di Lucas </tspan><tspan x="0" y="995">egen namnteckning, som ett slags </tspan><tspan x="0" y="1027">ursprungsgaranti. Men själva oljan har </tspan><tspan x="0" y="1059">inte så mycket med hans hemland att </tspan><tspan x="0" y="1091">göra – istället har ansenliga kvantiteter </tspan><tspan x="0" y="1123" xml:space="preserve">olja köpts in från Grekland och Spanien.  </tspan><tspan x="0" y="1171">Den som läser lite noggrannare på </tspan><tspan x="0" y="1203">flaskorna upptäcker därför </tspan><tspan x="0" y="1235">formuleringen »Ursprung Europeiska </tspan><tspan x="0" y="1267">Unionen«. Sedan 2010 är detta en </tspan><tspan x="0" y="1299">obligatorisk upplysning, som av </tspan><tspan x="0" y="1331">konsumenten ska tolkas som att minst </tspan><tspan x="0" y="1363">en del av oliverna </tspan><tspan class="e" y="1363">inte</tspan><tspan y="1363" xml:space="preserve"> vuxit i Italien, </tspan><tspan x="0" y="1395">trots att detta land ju faktiskt ingår i EU. </tspan><tspan x="0" y="1427">Om det verkligen hade handlat om helt </tspan><tspan x="0" y="1459">igenom italiensk olja hade tillverkaren </tspan><tspan x="0" y="1491">stolt basunerat ut detta på etiketten och </tspan><tspan x="0" y="1523" xml:space="preserve">skrivit »Ursprung Italien«.  </tspan><tspan x="0" y="1571">Det svenska familjeföretaget Zeta är </tspan><tspan x="0" y="1603">långt ifrån ensamt om att försöka </tspan><tspan x="0" y="1635">framställa sin olivolja som mer italiensk </tspan><tspan x="0" y="1667">än den är. Samma sak gör jätten Monini, </tspan><tspan x="0" y="1699">som på sina flaskor kör med frasen </tspan><tspan class="e" y="1699">»Una </tspan><tspan class="e" x="0" y="1731">spremuta di olive«</tspan><tspan y="1731" xml:space="preserve"> och har uttrycket »Nr </tspan><tspan x="0" y="1763">1 i Italien« i topp på etiketten – trots att </tspan><tspan x="0" y="1795">oljan innehåller grekisk och spansk </tspan><tspan x="0" y="1827">råvara. Och välkända pasta- och </tspan><tspan x="0" y="1859">oljeproducenten De Cecco, som utlovar </tspan><tspan class="e" x="0" y="1891">»Un gusto unico dalla passione della </tspan><tspan class="e" x="0" y="1923">famiglia di Cecco«</tspan><tspan y="1923">, väljer att skriva </tspan><tspan x="0" y="1955">själva den lagstadgade brasklappen om </tspan><tspan x="0" y="1987">att oljan egentligen inte är så italiensk på </tspan><tspan x="0" y="2019">– för oss svenskar – svårbegriplig </tspan><tspan x="0" y="2051">italienska. Först i det finstilta på </tspan><tspan x="0" y="2083">baksidan framgår det att det i själva </tspan><tspan x="0" y="2115">verket handlar om en blandning av </tspan><tspan x="0" y="2147">olivoljor från »unionen och tredje land«, </tspan><tspan x="0" y="2179">vilket ju täcker in jordens samtliga 195 </tspan><tspan x="0" y="2211">länder, och i det här fallet visar sig </tspan><tspan x="0" y="2243">betyda Grekland och Tunisien, enligt </tspan><tspan x="0" y="2275" xml:space="preserve">företagets besked till Hunger.  </tspan><tspan class="e"><tspan x="0" y="2323" xml:space="preserve">1 Extra jungfruolja  </tspan><tspan x="0" y="2371" xml:space="preserve">2 För varje dag  </tspan><tspan x="0" y="2419" xml:space="preserve">3 Saften från oliven  </tspan><tspan x="0" y="2467">4 Den unika smak som kommer från </tspan><tspan x="0" y="2499">familjen De Ceccos passion.</tspan><tspan class="n" y="2499" xml:space="preserve">  </tspan></tspan><tspan x="0" y="2547">Skrupelfria producenter över hela </tspan><tspan x="0" y="2579">världen surfar sedan länge glatt på det </tspan><tspan x="0" y="2611">italienska kökets goda rykte och gör sitt </tspan><tspan x="0" y="2643">bästa för att skapa intrycket av att deras </tspan><tspan x="0" y="2675">oliver, viner eller luft­torkade skinka </tspan><tspan x="0" y="2707">kommer från just detta stora och </tspan><tspan x="0" y="2739">eftertraktade matland. Särskilt gäller </tspan><tspan x="0" y="2771">detta olivolja, som av många </tspan><tspan x="0" y="2803">konsumenter uppfattas som närmast </tspan><tspan x="0" y="2835">synonymt med Italien. Vice ordföranden </tspan><tspan x="0" y="2867">för det italienska parlamentets </tspan><tspan x="0" y="2899">antibedrägeriutskott ­Francesco Cariello </tspan><tspan x="0" y="2931">sade nyligen att enligt de hemliga </tspan><tspan x="0" y="2963">underrättelserapporter han tagit del av </tspan><tspan x="0" y="2995">är endast 16 procent av den extra </tspan><tspan x="0" y="3027">jungfruolja som marknadsförs som </tspan><tspan x="0" y="3059">italiensk verkligen från Italien. Och då </tspan><tspan x="0" y="3091">handlar det inte om lite kreativ </tspan><tspan x="0" y="3123">marknadsföring av Zetas, Moninis eller </tspan><tspan x="0" y="3155">De Ceccos typ, utan om regelrätta </tspan><tspan x="0" y="3187">bedrägerier, då oljan märks som </tspan><tspan class="e" y="3187">»100% </tspan><tspan class="e" x="0" y="3219">italiano« </tspan><tspan y="3219">trots att den består av andra, </tspan><tspan x="0" y="3251" xml:space="preserve">billigare olivoljor.  </tspan><tspan x="0" y="3299"></tspan><tspan x="0" y="3347"></tspan><tspan class="o"><tspan class="c" x="0" y="3395">NÄR FERNANDO DI LUCA</tspan><tspan class="d" y="3395" xml:space="preserve"> kom till Sverige i </tspan><tspan class="d" x="0" y="3427">början av 1960-talet såldes olivolja </tspan><tspan class="d" x="0" y="3459">endast på apotek, i småflaskor för att </tspan><tspan class="d" x="0" y="3491">smörja barnrumpor med. I dag har den </tspan><tspan class="d" x="0" y="3523">en given plats i flera miljoner svenska </tspan><tspan class="d" x="0" y="3555">kök, och butikernas olivoljeutbud växer </tspan><tspan class="d" x="0" y="3587">ständigt. På bara några årtionden har vi </tspan><tspan class="d" x="0" y="3619">lärt oss att använda olivoljan i alla </tspan><tspan class="d" x="0" y="3651">möjliga maträtter. Men om det utbredda </tspan><tspan class="d" x="0" y="3683">fusket med detta mångtusenåriga </tspan><tspan class="d" x="0" y="3715">livsmedel är de flesta av oss fortfarande </tspan><tspan class="d" x="0" y="3747" xml:space="preserve">lyckligt omedvetna.  Ändå har </tspan><tspan class="d" x="0" y="3779">bedrägerierna gamla anor. Redan i </tspan><tspan class="d" x="0" y="3811">antikens Rom späddes olivoljan ut med </tspan><tspan class="d" x="0" y="3843">billigare fett – som animaliskt flott – </tspan><tspan class="d" x="0" y="3875">vilket till slut tvingade fram ett </tspan><tspan class="d" x="0" y="3907">detaljerat kontrollsystem, som faktiskt </tspan><tspan class="d" x="0" y="3939">gick längre än dagens regler. De amforor </tspan><tspan class="d" x="0" y="3971">som oljan tappades på förseglades </tspan><tspan class="d" x="0" y="4003">noggrant och märktes därefter med </tspan><tspan class="d" x="0" y="4035">namn på producenten, tidpunkt för </tspan><tspan class="d" x="0" y="4067">pressningen, oljans vikt och kvalitet </tspan><tspan class="d" x="0" y="4099">samt senare i processen importörens </tspan><tspan class="d" x="0" y="4131">namn – allt för att försvåra för skumma </tspan><tspan class="d" x="0" y="4163">mellanhänder längs den långa vägen </tspan><tspan class="d" x="0" y="4195">från de spanska och afrikanska oliv­</tspan><tspan class="d" x="0" y="4227">lundarna till magasinen i Rom. Fusket </tspan><tspan class="d" x="0" y="4259">var dock svårt att stoppa, och levde </tspan><tspan class="d" x="0" y="4291">vidare genom århundradena. I många </tspan><tspan class="d" x="0" y="4323">medeltida städer i ­Europa föreskrevs </tspan><tspan class="d" x="0" y="4355">stränga straff för de producenter som </tspan><tspan class="d" x="0" y="4387">blandade ut prima olivolja med olja av </tspan><tspan class="d" x="0" y="4419">sämre kvalitet. Och i 1860-talets USA </tspan><tspan class="d" x="0" y="4451">skrev en ansedd tidning att »det är ett </tspan><tspan class="d" x="0" y="4483">välbekant faktum att den olivolja som </tspan><tspan class="d" x="0" y="4515">säljs i Amerika och på andra ställen </tspan><tspan class="d" x="0" y="4547">ytterst sällan är ren, utan i stället ofta </tspan><tspan class="d" x="0" y="4579" xml:space="preserve">förfalskad med andra, billigare oljor«.  </tspan><tspan class="d" x="0" y="4611">Det moderna oljebedrägeriet är särskilt </tspan><tspan class="d" x="0" y="4643">utbrett i Italien, som är globalt centrum </tspan><tspan class="d" x="0" y="4675">för handeln med olivolja. I början av </tspan><tspan class="d" x="0" y="4707">1990-talet dömdes världens störste </tspan><tspan class="d" x="0" y="4739">olivoljehandlare, italienaren ­Domenico </tspan><tspan class="d" x="0" y="4771">Ribatti, till 13 månaders fängelse för att i </tspan><tspan class="d" x="0" y="4803">mycket stor skala sålt billig turkisk </tspan><tspan class="d" x="0" y="4835">hasselnötsolja som äkta olivolja. </tspan><tspan class="d" x="0" y="4867">Kunderna var bland andra matjättarna </tspan><tspan class="d" x="0" y="4899">Unilever och Nestlé samt det välkända </tspan><tspan class="d" x="0" y="4931">olivoljemärket Bertolli, som tappade </tspan><tspan class="d" x="0" y="4963">fejkoljan blandad med riktig olivolja på </tspan><tspan class="d" x="0" y="4995">sina flaskor och sålde den vidare till </tspan><tspan class="d" x="0" y="5027">konsument. Och sedan dess har </tspan><tspan class="d" x="0" y="5059">skandalerna avlöst varandra. Många av </tspan><tspan class="d" x="0" y="5091">bedrägerierna sker med hjälp av </tspan><tspan class="d" x="0" y="5123">högteknologiska laboratorier där billiga </tspan><tspan class="d" x="0" y="5155">oljor från nötter och frön processas och </tspan><tspan class="d" x="0" y="5187">blandas med riktig olivolja på ett så </tspan><tspan class="d" x="0" y="5219">tekniskt sofistikerat sätt att </tspan><tspan class="d" x="0" y="5251">förfalskningarna är extremt svåra att </tspan><tspan class="d" x="0" y="5283">upptäcka ens med avancerade kemiska </tspan><tspan class="d" x="0" y="5315">tester. I den undersökande reportern </tspan><tspan class="d" x="0" y="5347">Tom Muellers bok om olivoljefusket, </tspan><tspan class="p" x="0" y="5379">Extra virginity</tspan><tspan class="d" y="5379">, säger en EU-tjänsteman: </tspan><tspan class="d" x="0" y="5411">»Vinsterna är jämförbara med dem som </tspan><tspan class="d" x="0" y="5443">gäller för kokainsmugglare – men utan </tspan><tspan class="d" x="0" y="5475" xml:space="preserve">knarkhandelns risker.«  </tspan></tspan><tspan x="0" y="5523">Så sent som i december i fjol briserade </tspan><tspan x="0" y="5555">den senaste skandalen. Antimaffia­</tspan><tspan x="0" y="5587">utredare beordrade då 100 militär­poliser </tspan><tspan x="0" y="5619">att göra en razzia mot ett antal </tspan><tspan x="0" y="5651">misstänkta företag i olivoljeregionen </tspan><tspan x="0" y="5683">Puglia, vilket ledde till att 7 000 ton </tspan><tspan x="0" y="5715">tvivel­aktig olja påträffades. Trots att den </tspan><tspan x="0" y="5747">var märkt som »100 procent italiensk« </tspan><tspan x="0" y="5779">hade en stor del av oljan, enligt </tspan><tspan x="0" y="5811">åklagarna, importerats från Syrien, </tspan><tspan x="0" y="5843" xml:space="preserve">Turkiet, Tunisien och Marocko.     </tspan></text><line class="q" x2="324" transform="translate(18 679)"/><text class="r" transform="translate(18 462)"><tspan x="0" y="0">En god olivolja kan förgylla vilken </tspan><tspan x="0" y="30">sallad som helst. Men det finns </tspan><tspan x="0" y="60">knappast någon annan matvara </tspan><tspan x="0" y="90">som det fuskas så mycket med. Fyra </tspan><tspan x="0" y="120">av tio extra jungfruoljor fick </tspan><tspan x="0" y="150">underkänt när Hunger skickade </tspan><tspan x="0" y="180">dem på test.</tspan></text><text class="s" transform="translate(18 425)"><tspan x="0" y="0">PUBLICERAD TISDAG 12 JUNI 2018</tspan></text><text class="s" transform="translate(190 425)"><tspan x="0" y="0">LÄSTID: 12 min</tspan></text><text class="s" transform="translate(18 405)"><tspan x="0" y="0">TEXT</tspan><tspan y="0">:</tspan><tspan class="t" y="0"> </tspan><tspan class="u" y="0"> </tspan><tspan class="v" y="0">IVAR ANDERSSON</tspan><tspan class="w" y="0" xml:space="preserve">   </tspan><tspan y="0">FOTO:</tspan><tspan class="w" y="0"> </tspan><tspan class="v" y="0">LENA GRANEFELT</tspan></text><text class="x" transform="translate(18 377)"><tspan x="0" y="0">Fett fusk</tspan></text><g transform="translate(0 25)"><text class="y" transform="translate(89 4006)"><tspan x="0" y="0">FORTSÄTT LÄS DÄR DU SLUTADE</tspan></text><rect class="a" width="72" height="4" transform="translate(0 3997)"/><rect class="a" width="72" height="4" transform="translate(303 3997)"/></g><g transform="translate(174 415)"><path class="a" d="M6,0a6,6,0,1,0,6,6A6.007,6.007,0,0,0,6,0ZM6,10.723A4.723,4.723,0,1,1,10.723,6,4.729,4.729,0,0,1,6,10.723Z"/><path class="a" d="M47.935,20.753H45.1v-3.4a.519.519,0,1,0-1.037,0v3.923a.519.519,0,0,0,.519.519h3.35a.519.519,0,1,0,0-1.037Z" transform="translate(-38.769 -14.819)"/></g></g></svg>