<svg xmlns="http://www.w3.org/2000/svg" viewBox="0 0 16 12"><defs><style>.a{fill:#292929;}</style></defs><path class="a" d="M13,75.754H10.375A.372.372,0,0,1,10,75.387V74.162a.372.372,0,0,1,.375-.367H13a.989.989,0,0,0,1-.979V66.938a.989.989,0,0,0-1-.979H10.375A.372.372,0,0,1,10,65.592V64.367A.372.372,0,0,1,10.375,64H13a2.97,2.97,0,0,1,3,2.938v5.877A2.97,2.97,0,0,1,13,75.754ZM11.531,69.6l-5.25-5.142A.753.753,0,0,0,5,64.979v2.938H.75a.741.741,0,0,0-.75.735v2.938a.741.741,0,0,0,.75.735H5v2.938a.753.753,0,0,0,1.281.52l5.25-5.142A.73.73,0,0,0,11.531,69.6Z" transform="translate(0 -64)"/></svg>