<svg xmlns="http://www.w3.org/2000/svg" viewBox="0 0 14.746 11.16"><defs><style>.a{fill:#e1ab99;}</style></defs><path class="a" d="M11.981,74.931H9.562a.345.345,0,0,1-.346-.342V73.45a.345.345,0,0,1,.346-.342h2.419A.915.915,0,0,0,12.9,72.2V66.733a.915.915,0,0,0-.922-.911H9.562a.345.345,0,0,1-.346-.342V64.342A.345.345,0,0,1,9.562,64h2.419a2.75,2.75,0,0,1,2.765,2.733V72.2A2.75,2.75,0,0,1,11.981,74.931Zm-1.354-5.722L5.789,64.427a.693.693,0,0,0-1.181.484v2.733H.691A.686.686,0,0,0,0,68.327v2.733a.686.686,0,0,0,.691.683H4.608v2.733a.693.693,0,0,0,1.181.484l4.838-4.782A.683.683,0,0,0,10.627,69.209Z" transform="translate(0 -64)"/></svg>