<svg xmlns="http://www.w3.org/2000/svg" viewBox="0 0 17 23.017"><defs><style>.a{fill:#e1ab99;stroke:#e1ab99;}</style></defs><path class="a" d="M23.151.192A1.777,1.777,0,0,0,21.5.213a.5.5,0,0,0-.069.044L14.207,5.74H8.535A.508.508,0,0,0,8,6.218V15.3a.453.453,0,0,0,.156.338.567.567,0,0,0,.377.14l5.659,0,7.223,5.949a.521.521,0,0,0,.086.057,1.777,1.777,0,0,0,1.648.021A1.474,1.474,0,0,0,24,20.49V1.51A1.475,1.475,0,0,0,23.151.192Zm-.215,20.3a.541.541,0,0,1-.309.485.616.616,0,0,1-.533.012l-7.158-5.9V12.913a.537.537,0,0,0-1.067,0v1.911l-4.8,0V6.7h4.8V8.609a.537.537,0,0,0,1.067,0V6.439l7.149-5.423a.613.613,0,0,1,.542.009.541.541,0,0,1,.309.485Z" transform="translate(-7.502 0.517)"/></svg>