<svg xmlns="http://www.w3.org/2000/svg" viewBox="0 0 49 31.755"><defs><style>.a{fill:#e1ab99;}</style></defs><g transform="translate(0 -9.939)"><g transform="translate(30.615 23.971)"><path class="a" d="M36.782,27.008c-.061-.457-.35-.6-.793-.473-.1.03-.2.074-.306.107a.322.322,0,0,0-.25.366c.011,1.169.005,2.341.005,3.513v.6c.721.264,1.146.065,1.295-.654A10.329,10.329,0,0,0,36.782,27.008Z" transform="translate(-35.433 -26.49)"/></g><g transform="translate(0 9.939)"><path class="a" d="M47.739,9.939H1.261A1.261,1.261,0,0,0,0,11.2V40.432a1.262,1.262,0,0,0,1.261,1.262H47.739A1.261,1.261,0,0,0,49,40.433V11.2A1.261,1.261,0,0,0,47.739,9.939ZM12.153,28.075a2.333,2.333,0,0,1-2.368,2.288,7.4,7.4,0,0,1-2.709-.287c-.076-.021-.187-.116-.188-.179-.014-.624-.009-1.246-.009-1.895.451.1.877.2,1.31.268A2.7,2.7,0,0,0,9,28.286.591.591,0,0,0,9.376,28a.375.375,0,0,0-.167-.49c-.23-.144-.481-.256-.72-.385a7.872,7.872,0,0,1-.824-.462,2.058,2.058,0,0,1-.88-1.473,1.208,1.208,0,0,0-.047-.17v-.462c.042-.206.069-.418.127-.62a2.239,2.239,0,0,1,1.895-1.621,5.672,5.672,0,0,1,2.907.193.252.252,0,0,1,.209.287c-.011.58,0,1.161,0,1.733-.486-.088-.953-.182-1.425-.253a1.48,1.48,0,0,0-.583.008c-.132.035-.311.173-.329.287a.541.541,0,0,0,.18.431,4.914,4.914,0,0,0,.7.371,7.017,7.017,0,0,1,.892.5A2.233,2.233,0,0,1,12.153,28.075Zm4.192-.276c.042.349.171.468.523.447.306-.017.61-.064.944-.1v2a6.935,6.935,0,0,1-2.931.146,1.858,1.858,0,0,1-1.366-2.013c-.013-1.274,0-2.548,0-3.822v-.294H12.5v-1.8h1.012c.107-.527.216-1.033.307-1.543a.314.314,0,0,1,.272-.305c.74-.166,1.475-.351,2.241-.535v2.368h1.5c-.127.616-.247,1.2-.371,1.8h-1.1c-.006.1-.015.183-.015.265q0,1.564,0,3.128A2.213,2.213,0,0,0,16.345,27.8Zm6.875-3.1c-.313-.039-.592-.082-.871-.107a2.137,2.137,0,0,0-.434.016c-.586.076-.665.168-.665.745v4.881h-2.8V22.38a1.72,1.72,0,0,1,.186-.019c.607,0,1.214,0,1.821-.005a.3.3,0,0,1,.318.191c.087.185.2.358.3.543a1.5,1.5,0,0,1,1.923-.8c.166.043.238.108.235.292C23.216,23.285,23.222,23.985,23.22,24.7Zm3.485,5.542H23.911V22.372h2.794ZM25.323,21.4h0a1.33,1.33,0,0,1-.344-.042A1.4,1.4,0,0,1,24.333,21a1.421,1.421,0,0,1,.774-2.425c.017-.007.034-.012.051-.017h.308l.02.01a1.421,1.421,0,0,1-.163,2.833ZM34.6,28.276c-.015.057-.032.115-.049.172a2.469,2.469,0,0,1-2.585,1.942,11.321,11.321,0,0,1-1.214-.11v2.8H27.929c-.005-.085-.01-.17-.01-.256V22.359h1.354c.069,0,.136.005.2,0,.455-.036.9-.047,1.108.5.1-.071.171-.116.239-.164a2.694,2.694,0,0,1,2.372-.363,1.808,1.808,0,0,1,1.147,1.03,4.845,4.845,0,0,1,.43,1.73A9.307,9.307,0,0,1,34.6,28.276Zm4.492-.056a6.312,6.312,0,0,0,2.008-.146c.225-.037.45-.081.711-.127v1.447c0,.622,0,.621-.6.774a7.149,7.149,0,0,1-3.173.1A2.737,2.737,0,0,1,35.8,28.131a6.867,6.867,0,0,1,.007-3.624,2.933,2.933,0,0,1,3.044-2.286A2.8,2.8,0,0,1,42.07,24.77c.108.8.129,1.615.192,2.468H38.421A.765.765,0,0,0,39.092,28.219Z" transform="translate(0 -9.939)"/></g><g transform="translate(38.209 23.76)"><path class="a" d="M45.476,26.416a.52.52,0,0,0-.927-.19.8.8,0,0,0-.188.392c-.062.483-.1.971-.141,1.478h1.449C45.607,27.518,45.589,26.956,45.476,26.416Z" transform="translate(-44.22 -26.017)"/></g></g></svg>