<svg xmlns="http://www.w3.org/2000/svg" viewBox="0 0 49 32"><defs><style>.a{fill:#e1ab99;}</style></defs><g transform="translate(0 -9.939)"><g transform="translate(0 9.939)"><path class="a" d="M47.739,9.939H1.261A1.266,1.266,0,0,0,0,11.21V40.668a1.266,1.266,0,0,0,1.261,1.271H47.739A1.266,1.266,0,0,0,49,40.668V11.21A1.266,1.266,0,0,0,47.739,9.939ZM3.794,19.609h5.23a1.358,1.358,0,0,1,1.47,1.013l1.137,5.512c-1.117-2.883-3.81-5.282-7.88-6.275Zm6.328,12.572L7.1,21.781a13.315,13.315,0,0,1,4.673,5.169l.352,1.284,3.3-8.506H19L13.692,32.178Zm11.509.009H18.258l2.109-12.474h3.375Zm5.87.187a10.606,10.606,0,0,1-3.758-.666l.475-2.791.435.2a7.023,7.023,0,0,0,3.176.655c.969,0,2.008-.382,2.017-1.218.006-.546-.435-.936-1.748-1.548-1.281-.6-2.976-1.6-2.955-3.388.018-2.424,2.368-4.116,5.7-4.116a8.648,8.648,0,0,1,3.022.524l-.455,2.7-.3-.144a6.183,6.183,0,0,0-2.525-.477c-1.32,0-1.933.554-1.933,1.073-.007.584.715.969,1.895,1.547,1.946.89,2.846,1.97,2.833,3.389C33.35,30.7,31.048,32.377,27.5,32.377Zm14.618-.182s-.308-1.434-.41-1.869l-4.32-.005c-.131.337-.709,1.874-.709,1.874H33.137l5.008-11.431a1.678,1.678,0,0,1,1.767-1.035h2.606l2.73,12.465Z" transform="translate(0 -9.939)"/></g><g transform="translate(38.003 22.769)"><path class="a" d="M46.542,26.215l-.262-1.23c-.2.537-.539,1.4-.517,1.362,0,0-1.229,3.167-1.549,3.988h3.229C47.287,29.62,46.542,26.215,46.542,26.215Z" transform="translate(-44.214 -24.985)"/></g></g></svg>